<svg width="16" height="16" viewBox="0 0 16 16" fill="none" xmlns="http://www.w3.org/2000/svg">
  <path d="M4.2 6.2L1.4 4.5V9.1L4.5 8.2Z" fill="#6F8F5E"/>
  <path d="M11.8 6.2L14.6 4.5V9.1L11.5 8.2Z" fill="#6F8F5E"/>
  <path d="M5 3.8L8 2.3L11 3.8L12.4 6.2L11.7 10.7L8 13.4L4.3 10.7L3.6 6.2L5 3.8Z" fill="#91B374"/>
  <path d="M5 3.8L8 2.3L11 3.8L12.4 6.2L11.7 10.7L8 13.4L4.3 10.7L3.6 6.2L5 3.8Z" stroke="#284A35" stroke-linejoin="round"/>
  <path d="M5.2 5.3L6.9 6" stroke="#284A35" stroke-width="1.3" stroke-linecap="round"/>
  <path d="M10.8 5.3L9.1 6" stroke="#284A35" stroke-width="1.3" stroke-linecap="round"/>
  <circle cx="6.1" cy="7.3" r=".8" fill="#15241C"/>
  <circle cx="9.9" cy="7.3" r=".8" fill="#15241C"/>
  <path d="M8 7.8L7.1 9.3H8.9L8 7.8Z" fill="#63814F"/>
  <path d="M5.4 10.2H10.6" stroke="#284A35" stroke-width="1.2" stroke-linecap="round"/>
  <path d="M5.7 10.7L4.7 12.2L6.5 11.3Z" fill="#F1E6C8"/>
  <path d="M10.3 10.7L11.3 12.2L9.5 11.3Z" fill="#F1E6C8"/>
</svg>
